<svg width="64" height="64" viewBox="0 0 64 64" fill="none" xmlns="http://www.w3.org/2000/svg">
<path d="M32 2C15.4315 2 2 15.4315 2 32C2 48.5685 15.4315 62 32 62C48.5685 62 62 48.5685 62 32C62 15.4315 48.5685 2 32 2ZM50.3848 50.3848C45.8261 54.9298 39.7385 57.6149 33.3082 57.9168C26.8779 58.2186 20.5656 56.1157 15.6012 52.0176C10.6367 47.9196 7.37583 42.12 6.45386 35.749C5.53188 29.3781 7.01489 22.892 10.6139 17.5547C14.2129 12.2174 19.6701 8.41123 25.9221 6.87778C32.1742 5.34433 38.7732 6.19347 44.4334 9.25975C50.0936 12.326 54.4094 17.3898 56.54 23.4643C58.6705 29.5389 58.4632 36.1891 55.9584 42.1191C54.653 45.2091 52.7601 48.0163 50.3848 50.3848Z" fill="#1D3F5C"/>
<path d="M32.0001 47.9999C35.4479 47.9999 38.7545 46.6302 41.1925 44.1922C43.6305 41.7543 45.0001 38.4477 45.0001 34.9999H19.0001C19.0001 38.4477 20.3697 41.7543 22.8077 44.1922C25.2457 46.6302 28.5523 47.9999 32.0001 47.9999ZM25.7197 28.5364L28.2805 25.4634L21.0001 19.3965L13.7197 25.4634L16.2805 28.5364L21.0001 24.6032L25.7197 28.5364ZM35.7197 25.4634L38.2805 28.5364L43.0001 24.6032L47.7197 28.5364L50.2805 25.4634L43.0001 19.3965L35.7197 25.4634Z" fill="#1D3F5C"/>
</svg>
