<svg width="64" height="64" viewBox="0 0 64 64" fill="none" xmlns="http://www.w3.org/2000/svg">
<g clip-path="url(#clip0_30_176)">
<path d="M63.3835 23.5627C61.0954 17.3052 53.6205 15.2367 48.4665 18.6617L41.5618 12.9292C43.428 6.8696 39.0681 0.203972 32.2898 0.00734713C25.309 -0.195153 20.491 6.60072 22.4365 12.9211L15.5269 18.6575C10.2154 15.1278 2.55025 17.4707 0.481004 23.958C-1.4305 29.9508 2.5995 35.8246 8.25 36.8412L10.9234 46.4335C6.14963 50.5435 6.2655 58.4492 11.8569 62.2477C17.3961 66.0107 24.716 63.3017 26.8689 57.4718H37.1144C39.3453 63.5812 47.1176 66.1381 52.5906 61.9131C57.8619 57.844 57.5994 50.1091 52.8078 46.2258L55.5676 36.8726C61.492 35.9285 65.619 29.6762 63.3835 23.5626M36.6995 51.9731H27.2908C26.2398 46.8071 21.1759 43.3048 15.9816 44.1015L13.7954 36.2563C19.1045 34.1202 21.4415 27.873 19.1106 22.8296L25.4454 17.5706C29.1408 20.7851 34.8173 20.8248 38.5476 17.5748L44.8879 22.8387C42.5631 27.8681 44.8973 34.0082 50.0358 36.1883L47.7136 44.0577C42.5724 43.4157 37.7316 46.9567 36.6995 51.9731Z" fill="#1D3F5C"/>
</g>
<defs>
<clipPath id="clip0_30_176">
<rect width="64" height="64" fill="white"/>
</clipPath>
</defs>
</svg>
