<svg width="65" height="64" viewBox="0 0 65 64" fill="none" xmlns="http://www.w3.org/2000/svg">
<path d="M46.508 53.1118C51.4526 49.8361 55.091 44.9293 56.7893 39.2466C58.4877 33.5638 58.1382 27.4652 55.8019 22.0136C53.4656 16.562 49.2905 12.1029 44.0042 9.41343C38.7179 6.72394 32.6555 5.97453 26.8734 7.29579M46.5107 45.3331V53.1091L55.1667 53.1118M18.4254 10.9331C13.4951 14.2201 9.87304 19.1313 8.18919 24.8125C6.50533 30.4937 6.86624 36.5854 9.20913 42.0281C11.552 47.4707 15.7286 51.9199 21.0125 54.6017C26.2964 57.2835 32.3532 58.0283 38.1294 56.7065M18.4254 10.9331V18.6665M18.4254 10.9331H9.83335" stroke="#1D3F5C" stroke-width="4" stroke-linecap="round" stroke-linejoin="round"/>
<path d="M33.8333 18.6665L24.5 31.9998H40.5L31.1667 45.3332" stroke="#1D3F5C" stroke-width="4" stroke-linecap="round" stroke-linejoin="round"/>
</svg>
