<svg width="64" height="64" viewBox="0 0 64 64" fill="none" xmlns="http://www.w3.org/2000/svg">
<path d="M17.408 23.2501C22.5828 18.6512 25.792 17.097 32 15.9541C38.208 17.1015 41.4171 18.6512 46.592 23.2501L32 30.5461L17.408 23.2501Z" stroke="#1D3F5C" stroke-width="4.57143" stroke-linecap="round" stroke-linejoin="round"/>
<path d="M31.9999 30.5099V47.5659M17.4079 23.2505C15.6114 28.1876 15.5931 34.0756 17.0194 39.0356C17.2593 39.8487 17.7369 40.5715 18.3908 41.1111C22.9074 44.8779 25.9976 46.2631 31.0354 47.3648C31.6711 47.502 32.3288 47.502 32.9645 47.3648C38.0022 46.2631 41.0925 44.8779 45.6045 41.1111C46.26 40.5721 46.7393 39.8493 46.9805 39.0356C48.4068 34.0756 48.3885 28.1876 46.5919 23.2505L31.9999 30.5465L17.4079 23.2505Z" stroke="#1D3F5C" stroke-width="4.57143" stroke-linecap="round" stroke-linejoin="round"/>
<path d="M3.42847 32C3.42601 25.6393 5.54608 19.4598 9.45279 14.4403C13.3595 9.42081 18.8294 5.84847 24.996 4.28925C31.1626 2.73003 37.6731 3.27309 43.4961 5.8324C49.3191 8.39171 54.1216 12.8209 57.1428 18.4183C57.4902 13.3805 57.385 10.5005 56.6856 5.2754M60.5713 32C60.5733 38.3473 58.4616 44.5146 54.5696 49.5286C50.6775 54.5425 45.2266 58.1178 39.077 59.69C32.9275 61.2622 26.4295 60.7419 20.6085 58.2113C14.7875 55.6806 9.97491 51.2836 6.93018 45.7143C6.58275 50.752 6.68333 53.632 7.38733 58.8571" stroke="#1D3F5C" stroke-width="4.57143" stroke-linecap="round" stroke-linejoin="round"/>
</svg>
